<svg xmlns="http://www.w3.org/2000/svg" version="1.1" width="96" height="96" viewbox="0 0 96 96"><rect x="0" y="0" width="96" height="96" fill="#2e5448" ></rect><g transform="translate(36, 60)"><path d="M1.3-23.62L1.3-23.62Q0.82-23.62 0.82-24.53L0.82-24.53Q0.82-24.72 0.82-24.84 0.82-24.96 0.84-25.06 0.86-25.15 0.91-25.22 0.96-25.3 0.96-25.34 0.96-25.39 1.08-25.44 1.2-25.49 1.25-25.49 1.3-25.49 1.46-25.54 1.63-25.58 1.73-25.63L1.73-25.63Q5.33-26.54 7.99-29.33 10.66-32.11 11.33-35.86L11.33-35.86Q11.47-36.72 11.66-36.91L11.66-36.91Q11.81-37.06 12-37.06L12-37.06Q12.43-37.06 12.53-36.58L12.53-36.58Q12.53-36.53 12.55-36.38 12.58-36.24 12.62-36.07 12.67-35.9 12.67-35.81L12.67-35.81Q13.49-32.06 16.1-29.28 18.72-26.5 22.27-25.63L22.27-25.63Q22.37-25.58 22.54-25.54 22.7-25.49 22.75-25.49 22.8-25.49 22.92-25.44 23.04-25.39 23.04-25.34 23.04-25.3 23.09-25.22 23.14-25.15 23.16-25.06 23.18-24.96 23.18-24.84 23.18-24.72 23.18-24.53L23.18-24.53Q23.18-23.57 22.7-23.57L22.7-23.57Q22.42-23.57 21.98-23.71L21.98-23.71Q16.42-25.25 13.3-29.9L13.3-29.9 12.96-30.38 12.96 6.38 13.3 5.9Q15.5 2.54 19.3 0.72L19.3 0.72Q21.6-0.38 22.7-0.38L22.7-0.38Q23.18-0.38 23.18 0.53L23.18 0.53Q23.18 0.72 23.18 0.84 23.18 0.96 23.16 1.06 23.14 1.15 23.09 1.22 23.04 1.3 23.04 1.34 23.04 1.39 22.92 1.44 22.8 1.49 22.75 1.49 22.7 1.49 22.54 1.54 22.37 1.58 22.27 1.63L22.27 1.63Q18.67 2.54 16.08 5.3 13.49 8.06 12.67 11.81L12.67 11.81Q12.67 11.9 12.62 12.07 12.58 12.24 12.55 12.38 12.53 12.53 12.53 12.58L12.53 12.58Q12.43 13.06 12 13.06L12 13.06Q11.81 13.06 11.66 12.91L11.66 12.91Q11.47 12.72 11.33 11.81L11.33 11.81Q10.61 8.11 7.97 5.33 5.33 2.54 1.73 1.63L1.73 1.63Q1.63 1.58 1.46 1.54 1.3 1.49 1.25 1.49 1.2 1.49 1.08 1.44 0.96 1.39 0.96 1.34 0.96 1.3 0.91 1.22 0.86 1.15 0.84 1.06 0.82 0.96 0.82 0.84 0.82 0.72 0.82 0.53L0.82 0.53Q0.82-0.43 1.3-0.43L1.3-0.43Q1.58-0.43 2.02-0.29L2.02-0.29Q7.58 1.25 10.7 5.9L10.7 5.9 11.04 6.38 11.04-30.38 10.7-29.9Q8.5-26.54 4.75-24.72L4.75-24.72Q2.35-23.62 1.3-23.62Z" fill="#cd853f"></path></g></svg>